<svg version="1.1" xmlns="http://www.w3.org/2000/svg" viewBox="0 0 250.01953125 213.703125" width="500.0390625" height="427.40625">
  <!-- svg-source:excalidraw -->
  
  <defs>
    <style class="style-fonts">
      @font-face {
        font-family: "Virgil";
        src: url("https://excalidraw.com/Virgil.woff2");
      }
      @font-face {
        font-family: "Cascadia";
        src: url("https://excalidraw.com/Cascadia.woff2");
      }
      @font-face {
        font-family: "Assistant";
        src: url("https://excalidraw.com/Assistant-Regular.woff2");
      }
    </style>
    
  </defs>
  <rect x="0" y="0" width="250.01953125" height="213.703125" fill="#ffffff"></rect><g stroke-linecap="round" transform="translate(10 10) rotate(0 115.009765625 96.8515625)"><path d="M32 0 C70.06 -2.34, 110.38 -1.11, 198.02 0 M32 0 C76.97 -0.64, 122.53 -0.25, 198.02 0 M198.02 0 C219.75 -1.34, 228.99 12.03, 230.02 32 M198.02 0 C220.07 -2.04, 229.77 12.44, 230.02 32 M230.02 32 C229.74 73.24, 228.92 118.43, 230.02 161.7 M230.02 32 C230.65 83.41, 229.66 135.81, 230.02 161.7 M230.02 161.7 C231.51 184.86, 219.37 192.98, 198.02 193.7 M230.02 161.7 C227.83 185.09, 220.72 194.74, 198.02 193.7 M198.02 193.7 C143.85 193.63, 92.28 192.23, 32 193.7 M198.02 193.7 C140.55 193.33, 83.93 194.01, 32 193.7 M32 193.7 C10.22 195.1, -1.81 182, 0 161.7 M32 193.7 C11.19 192.5, 0.13 182.93, 0 161.7 M0 161.7 C-2.94 132.5, 0.14 103.53, 0 32 M0 161.7 C-0.51 115.16, -0.51 66.66, 0 32 M0 32 C-1.92 9.2, 9.27 1.94, 32 0 M0 32 C-1.32 8.65, 10.92 -1.58, 32 0" stroke="#1e1e1e" stroke-width="2" fill="none"></path></g><g transform="translate(77.671875 90.2421875) rotate(0 53.549949645996094 12.5)"><text x="0" y="0" font-family="Virgil, Segoe UI Emoji" font-size="20px" fill="#1e1e1e" text-anchor="start" style="white-space: pre;" direction="ltr" dominant-baseline="text-before-edge">Some text.</text></g></svg>